<?xml version="1.0" encoding="UTF-8" standalone="no"?>
<svg
   xmlns:dc="http://purl.org/dc/elements/1.1/"
   xmlns:cc="http://creativecommons.org/ns#"
   xmlns:rdf="http://www.w3.org/1999/02/22-rdf-syntax-ns#"
   xmlns:svg="http://www.w3.org/2000/svg"
   xmlns="http://www.w3.org/2000/svg"
   xmlns:xlink="http://www.w3.org/1999/xlink"
   xmlns:sodipodi="http://sodipodi.sourceforge.net/DTD/sodipodi-0.dtd"
   xmlns:inkscape="http://www.inkscape.org/namespaces/inkscape"
   version="1.1"
   x="0px"
   y="0px"
   width="20"
   height="20"
   viewBox="0 0 20 20"
   id="svg13"
   inkscape:version="0.91 r13725"
   sodipodi:docname="close_focused_pressed.svg">
  <metadata
     id="metadata22">
    <rdf:RDF>
      <cc:Work
         rdf:about="">
        <dc:format>image/svg+xml</dc:format>
        <dc:type
           rdf:resource="http://purl.org/dc/dcmitype/StillImage" />
        <dc:title></dc:title>
      </cc:Work>
    </rdf:RDF>
  </metadata>
  <defs
     id="defs20" />
  <sodipodi:namedview
     pagecolor="#ffffff"
     bordercolor="#666666"
     borderopacity="1"
     objecttolerance="10"
     gridtolerance="10"
     guidetolerance="10"
     inkscape:pageopacity="0"
     inkscape:pageshadow="2"
     inkscape:window-width="640"
     inkscape:window-height="480"
     id="namedview18"
     showgrid="false"
     inkscape:zoom="9.82b2b2b"
     inkscape:cx="11.898305"
     inkscape:cy="12"
     inkscape:window-x="333"
     inkscape:window-y="349"
     inkscape:window-maximized="0"
     inkscape:current-layer="svg13" />
  <path
     id="a"
     d="m 14,6 c 0,0 0,0.2 -0.1,0.6 0,0.2 -0.1,0.4 -0.1,0.7 0,0.1 -0.1,0.3 -0.1,0.4 0,0.1 -0.2,0.2 -0.3,0.3 -0.7,0.7 -1.7,1.7 -2.7,2.7 -1,1 -2,2 -2.7,2.7 -0.1,0.1 -0.1,0.2 -0.3,0.3 -0.1,0 -0.3,0.1 -0.4,0.1 C 7.1,13.9 6.8,13.9 6.6,13.9 6.2,14 6,14 6,14 c 0,0 0,-0.2 0.1,-0.6 0,-0.2 0.1,-0.4 0.1,-0.7 0,-0.1 0.1,-0.3 0.1,-0.4 0,-0.1 0.2,-0.2 0.3,-0.3 0.7,-0.7 1.7,-1.7 2.7,-2.7 1,-1 2,-2 2.7,-2.7 0.1,-0.1 0.1,-0.2 0.3,-0.3 0.1,0 0.3,-0.1 0.4,-0.1 C 12.9,6.1 13.2,6.1 13.4,6.1 13.7,6 14,6 14,6 Z"
     inkscape:connector-curvature="0"
     style="opacity:0.75;fill:#d64937" />
  <use
     xlink:href="#a"
     transform="matrix(-1,0,0,1,20,0)"
     id="use16"
     x="0"
     y="0"
     width="100%"
     height="100%" />
</svg>
